
<svg width="600" height="400" viewBox="0 0 600 400" xmlns="http://www.w3.org/2000/svg">
  <!-- Background grid -->
  <rect width="600" height="400" fill="#FFFFFF" opacity="0.9" />
  <path stroke="#E0E0E0" stroke-width="1" d="M0,40 L600,40 M0,80 L600,80 M0,120 L600,120 M0,160 L600,160 M0,200 L600,200 M0,240 L600,240 M0,280 L600,280 M0,320 L600,320 M0,360 L600,360" />
  <path stroke="#E0E0E0" stroke-width="1" d="M40,0 L40,400 M80,0 L80,400 M120,0 L120,400 M160,0 L160,400 M200,0 L200,400 M240,0 L240,400 M280,0 L280,400 M320,0 L320,400 M360,0 L360,400 M400,0 L400,400 M440,0 L440,400 M480,0 L480,400 M520,0 L520,400 M560,0 L560,400" />
  
  <!-- Header area -->
  <rect x="0" y="0" width="600" height="50" fill="#F8F9FA" />
  <circle cx="25" cy="25" r="15" fill="#8989DE" />
  <rect x="50" y="20" width="60" height="10" rx="2" fill="#9CA3AF" />
  <rect x="500" y="15" width="30" height="20" rx="4" fill="#8989DE" />
  <rect x="540" y="15" width="30" height="20" rx="4" fill="#E5E7EB" />
  
  <!-- Chart area -->
  <rect x="20" y="70" width="300" height="200" rx="4" fill="#F8F9FA" opacity="0.8" />
  
  <!-- Stock chart -->
  <polyline points="30,230 50,200 70,210 90,180 110,190 130,150 150,160 170,130 190,140 210,100 230,120 250,80 270,90 290,70 310,80" 
            stroke="#8989DE" stroke-width="2" fill="none" />
  <path d="M30,230 L310,230" stroke="#D1D5DB" stroke-width="1" />
  
  <!-- Order book -->
  <rect x="340" y="70" width="240" height="200" rx="4" fill="#F8F9FA" opacity="0.8" />
  <rect x="350" y="85" width="220" height="1" fill="#D1D5DB" />
  <rect x="350" y="115" width="220" height="1" fill="#D1D5DB" />
  <rect x="350" y="145" width="220" height="1" fill="#D1D5DB" />
  <rect x="350" y="175" width="220" height="1" fill="#D1D5DB" />
  <rect x="350" y="205" width="220" height="1" fill="#D1D5DB" />
  <rect x="350" y="235" width="220" height="1" fill="#D1D5DB" />
  
  <!-- Green/red price bars -->
  <rect x="400" y="90" width="80" height="20" rx="2" fill="#7EBF8E" opacity="0.6" />
  <rect x="400" y="120" width="60" height="20" rx="2" fill="#7EBF8E" opacity="0.6" />
  <rect x="400" y="180" width="70" height="20" rx="2" fill="#D2886F" opacity="0.6" />
  <rect x="400" y="210" width="90" height="20" rx="2" fill="#D2886F" opacity="0.6" />
  
  <!-- Bottom panel -->
  <rect x="20" y="290" width="560" height="90" rx="4" fill="#F8F9FA" opacity="0.8" />
  <rect x="30" y="305" width="100" height="20" rx="4" fill="#E5E7EB" />
  <rect x="30" y="335" width="100" height="20" rx="4" fill="#E5E7EB" />
  <rect x="150" y="305" width="100" height="20" rx="4" fill="#E5E7EB" />
  <rect x="150" y="335" width="100" height="20" rx="4" fill="#E5E7EB" />
  <rect x="270" y="305" width="100" height="20" rx="4" fill="#E5E7EB" />
  <rect x="270" y="335" width="100" height="20" rx="4" fill="#E5E7EB" />
  <rect x="460" y="317" width="100" height="25" rx="4" fill="#8989DE" />
</svg>
